<svg width="938pt" height="180pt" viewBox="0.00 0.00 938.38 179.77" xmlns="http://www.w3.org/2000/svg" xmlns:xlink="http://www.w3.org/1999/xlink">
<g id="graph0" class="graph" transform="scale(1 1) rotate(0) translate(4 175.77)">
<title>G</title>
<polygon fill="white" stroke="none" points="-4,4 -4,-175.77 934.38,-175.77 934.38,4 -4,4"/>
<!-- aws_eip.IP -->
<g id="node1" class="node">
<title>aws_eip.IP</title>
<polygon fill="none" stroke="black" points="930.38,-104 852.55,-104 852.55,-68 930.38,-68 930.38,-104"/>
<text text-anchor="middle" x="891.47" y="-81.8" font-family="sans-serif" font-size="14.00">aws_eip.IP</text>
</g>
<!-- aws_instance.name -->
<g id="node2" class="node">
<title>aws_instance.name</title>
<polygon fill="none" stroke="black" points="783.51,-54 659.05,-54 659.05,-18 783.51,-18 783.51,-54"/>
<text text-anchor="middle" x="721.28" y="-31.8" font-family="sans-serif" font-size="14.00">aws_instance.name</text>
</g>
<!-- aws_eip.IP&#45;&gt;aws_instance.name -->
<g id="edge1" class="edge">
<title>aws_eip.IP-&gt;aws_instance.name</title>
<path fill="none" stroke="black" d="M852.3,-74.65C835.21,-69.57 814.47,-63.41 794.62,-57.51"/>
<polygon fill="black" stroke="black" points="795.74,-54.19 785.16,-54.69 793.75,-60.9 795.74,-54.19"/>
</g>
<!-- aws_internet_gateway.gw -->
<g id="node3" class="node">
<title>aws_internet_gateway.gw</title>
<polygon fill="none" stroke="black" points="321.48,-144 159.69,-144 159.69,-108 321.48,-108 321.48,-144"/>
<text text-anchor="middle" x="240.58" y="-121.8" font-family="sans-serif" font-size="14.00">aws_internet_gateway.gw</text>
</g>
<!-- aws_eip.IP&#45;&gt;aws_internet_gateway.gw -->
<g id="edge2" class="edge">
<title>aws_eip.IP-&gt;aws_internet_gateway.gw</title>
<path fill="none" stroke="black" d="M870.17,-104.33C856.18,-115.73 836.57,-129.43 816.55,-136 622.66,-199.66 560.88,-161.56 357.48,-145 349.51,-144.35 341.27,-143.46 333.03,-142.41"/>
<polygon fill="black" stroke="black" points="333.68,-138.96 323.3,-141.09 332.74,-145.9 333.68,-138.96"/>
</g>
<!-- aws_network_interface.web_server_ni -->
<g id="node4" class="node">
<title>aws_network_interface.web_server_ni</title>
<polygon fill="none" stroke="black" points="590,-44 357.48,-44 357.48,-8 590,-8 590,-44"/>
<text text-anchor="middle" x="473.74" y="-21.8" font-family="sans-serif" font-size="14.00">aws_network_interface.web_server_ni</text>
</g>
<!-- aws_instance.name&#45;&gt;aws_network_interface.web_server_ni -->
<g id="edge3" class="edge">
<title>aws_instance.name-&gt;aws_network_interface.web_server_ni</title>
<path fill="none" stroke="black" d="M658.63,-33.49C641.1,-32.78 621.32,-31.97 601.41,-31.16"/>
<polygon fill="black" stroke="black" points="601.67,-27.67 591.54,-30.76 601.38,-34.66 601.67,-27.67"/>
</g>
<!-- aws_vpc.main_vpc -->
<g id="node9" class="node">
<title>aws_vpc.main_vpc</title>
<polygon fill="none" stroke="black" points="123.69,-90 0,-90 0,-54 123.69,-54 123.69,-90"/>
<text text-anchor="middle" x="61.85" y="-67.8" font-family="sans-serif" font-size="14.00">aws_vpc.main_vpc</text>
</g>
<!-- aws_internet_gateway.gw&#45;&gt;aws_vpc.main_vpc -->
<g id="edge4" class="edge">
<title>aws_internet_gateway.gw-&gt;aws_vpc.main_vpc</title>
<path fill="none" stroke="black" d="M179.26,-107.57C164.69,-103.12 148.99,-98.32 133.98,-93.74"/>
<polygon fill="black" stroke="black" points="135.24,-90.46 124.65,-90.88 133.19,-97.15 135.24,-90.46"/>
</g>
<!-- aws_security_group.sg1 -->
<g id="node7" class="node">
<title>aws_security_group.sg1</title>
<polygon fill="none" stroke="black" points="316.44,-36 164.73,-36 164.73,0 316.44,0 316.44,-36"/>
<text text-anchor="middle" x="240.58" y="-13.8" font-family="sans-serif" font-size="14.00">aws_security_group.sg1</text>
</g>
<!-- aws_network_interface.web_server_ni&#45;&gt;aws_security_group.sg1 -->
<g id="edge5" class="edge">
<title>aws_network_interface.web_server_ni-&gt;aws_security_group.sg1</title>
<path fill="none" stroke="black" d="M357.16,-22C347.37,-21.66 337.58,-21.32 328.07,-20.99"/>
<polygon fill="black" stroke="black" points="328.26,-17.5 318.15,-20.65 328.02,-24.49 328.26,-17.5"/>
</g>
<!-- aws_subnet.sub1 -->
<g id="node8" class="node">
<title>aws_subnet.sub1</title>
<polygon fill="none" stroke="black" points="296.22,-90 184.95,-90 184.95,-54 296.22,-54 296.22,-90"/>
<text text-anchor="middle" x="240.58" y="-67.8" font-family="sans-serif" font-size="14.00">aws_subnet.sub1</text>
</g>
<!-- aws_network_interface.web_server_ni&#45;&gt;aws_subnet.sub1 -->
<g id="edge6" class="edge">
<title>aws_network_interface.web_server_ni-&gt;aws_subnet.sub1</title>
<path fill="none" stroke="black" d="M380.05,-44.44C355.87,-49.26 330.31,-54.34 307.81,-58.82"/>
<polygon fill="black" stroke="black" points="307.3,-55.35 298.18,-60.74 308.67,-62.22 307.3,-55.35"/>
</g>
<!-- aws_route_table.rt -->
<g id="node5" class="node">
<title>aws_route_table.rt</title>
<polygon fill="none" stroke="black" points="533.64,-136 413.84,-136 413.84,-100 533.64,-100 533.64,-136"/>
<text text-anchor="middle" x="473.74" y="-113.8" font-family="sans-serif" font-size="14.00">aws_route_table.rt</text>
</g>
<!-- aws_route_table.rt&#45;&gt;aws_internet_gateway.gw -->
<g id="edge7" class="edge">
<title>aws_route_table.rt-&gt;aws_internet_gateway.gw</title>
<path fill="none" stroke="black" d="M413.51,-120.05C389.05,-120.9 360.13,-121.9 333.05,-122.83"/>
<polygon fill="black" stroke="black" points="332.97,-119.34 323.09,-123.18 333.21,-126.33 332.97,-119.34"/>
</g>
<!-- aws_route_table_association.ta -->
<g id="node6" class="node">
<title>aws_route_table_association.ta</title>
<polygon fill="none" stroke="black" points="816.55,-127 626,-127 626,-91 816.55,-91 816.55,-127"/>
<text text-anchor="middle" x="721.28" y="-104.8" font-family="sans-serif" font-size="14.00">aws_route_table_association.ta</text>
</g>
<!-- aws_route_table_association.ta&#45;&gt;aws_route_table.rt -->
<g id="edge8" class="edge">
<title>aws_route_table_association.ta-&gt;aws_route_table.rt</title>
<path fill="none" stroke="black" d="M625.7,-112.47C598.98,-113.45 570.39,-114.49 545.35,-115.41"/>
<polygon fill="black" stroke="black" points="545.5,-111.9 535.63,-115.77 545.75,-118.9 545.5,-111.9"/>
</g>
<!-- aws_route_table_association.ta&#45;&gt;aws_subnet.sub1 -->
<g id="edge9" class="edge">
<title>aws_route_table_association.ta-&gt;aws_subnet.sub1</title>
<path fill="none" stroke="black" d="M625.75,-95C613.73,-93.5 601.59,-92.11 590,-91 492.04,-81.58 378.1,-76.46 307.91,-73.98"/>
<polygon fill="black" stroke="black" points="308.23,-70.49 298.12,-73.64 307.99,-77.49 308.23,-70.49"/>
</g>
<!-- aws_security_group.sg1&#45;&gt;aws_vpc.main_vpc -->
<g id="edge10" class="edge">
<title>aws_security_group.sg1-&gt;aws_vpc.main_vpc</title>
<path fill="none" stroke="black" d="M179.26,-36.43C164.69,-40.88 148.99,-45.68 133.98,-50.26"/>
<polygon fill="black" stroke="black" points="133.19,-46.85 124.65,-53.12 135.24,-53.54 133.19,-46.85"/>
</g>
<!-- aws_subnet.sub1&#45;&gt;aws_vpc.main_vpc -->
<g id="edge11" class="edge">
<title>aws_subnet.sub1-&gt;aws_vpc.main_vpc</title>
<path fill="none" stroke="black" d="M184.63,-72C168.99,-72 151.71,-72 135.2,-72"/>
<polygon fill="black" stroke="black" points="135.43,-68.5 125.43,-72 135.43,-75.5 135.43,-68.5"/>
</g>
</g>
</svg>